<?xml version="1.0" encoding="UTF-8"?>
<svg version="1.1" xmlns="http://www.w3.org/2000/svg" width="256" height="107">
<path d="M0 0 C0.73207169 -0.00671722 1.46414337 -0.01343445 2.21839905 -0.02035522 C4.64070408 -0.03936612 7.0627324 -0.04326121 9.48510742 -0.04541016 C11.17038588 -0.05183693 12.85566322 -0.0585652 14.54093933 -0.06558228 C18.07582179 -0.07756346 21.61060648 -0.08126234 25.14550781 -0.08007812 C29.66833671 -0.07987511 34.19053601 -0.10715483 38.71321583 -0.14162254 C42.19543824 -0.16389736 45.67750941 -0.16791546 49.15979576 -0.16685867 C50.8267197 -0.16921462 52.49364781 -0.17803786 54.16050148 -0.19352341 C56.49676731 -0.21319198 58.8316796 -0.20734264 61.16796875 -0.1953125 C61.85234009 -0.20655151 62.53671143 -0.21779053 63.24182129 -0.22937012 C68.18819371 -0.16487561 70.9498266 1.23557066 74.77807617 4.29052734 C79.46954523 9.48918225 80.19932337 13.59326238 80.11791992 20.43115234 C79.5906602 24.86740654 77.954131 28.15635456 74.77807617 31.29052734 C69.05607712 35.41416186 64.77801108 35.81485937 57.84057617 35.54052734 C56.52863281 35.51345703 56.52863281 35.51345703 55.19018555 35.48583984 C53.05233509 35.43911087 50.91505572 35.36738175 48.77807617 35.29052734 C48.67027328 35.87662781 48.5624704 36.46272827 48.45140076 37.06658936 C47.16295209 43.80903729 45.47591699 50.38557625 43.62573242 56.99365234 C43.32493271 58.07507507 43.024133 59.1564978 42.71421814 60.27069092 C42.08156058 62.54020323 41.4469753 64.80917897 40.81054688 67.07763672 C39.84003286 70.54246702 38.88006906 74.01010952 37.9206543 77.47802734 C37.30215249 79.69174759 36.68303317 81.90529542 36.06323242 84.11865234 C35.77875748 85.15000305 35.49428253 86.18135376 35.20118713 87.24395752 C32.87271497 95.48447865 30.7257678 101.11671443 23.77807617 106.29052734 C19.35882693 108.50015197 13.588394 107.70652316 8.77807617 107.29052734 C3.80586817 105.02250264 1.47604637 101.98699399 -1.22192383 97.29052734 C-3.74812253 89.71193123 -1.26311091 82.86592458 0.84057617 75.45068359 C1.1513208 74.32858994 1.46206543 73.20649628 1.78222656 72.05039978 C2.77244864 68.48220986 3.77506992 64.91764234 4.77807617 61.35302734 C5.45337747 58.92812594 6.12786586 56.50299799 6.80151367 54.07763672 C8.45095909 48.14594339 10.11058655 42.21717188 11.77807617 36.29052734 C10.63209961 36.26474609 9.48612305 36.23896484 8.30541992 36.21240234 C6.77543587 36.15608391 5.24548942 36.09873744 3.71557617 36.04052734 C2.9634082 36.02634766 2.21124023 36.01216797 1.4362793 35.99755859 C-5.28327251 35.70666891 -9.79911503 33.84429878 -14.53442383 28.85302734 C-17.7792194 23.92574517 -18.73400757 20.2306987 -18.22192383 14.29052734 C-15.1685648 4.96974714 -9.75454689 -0.01280516 0 0 Z " fill="#0176EB" transform="translate(175.221923828125,-0.29052734375)"/>
<path d="M0 0 C4.7054602 3.19407042 7.15440181 6.76719179 8.31204224 12.2481842 C8.6728307 16.47372279 8.07295786 19.43659965 6.95654297 23.51733398 C6.67870122 24.55623229 6.67870122 24.55623229 6.39524651 25.61611843 C6.00883278 27.05706187 5.61688122 28.49653125 5.21950531 29.9344902 C4.67027968 31.92891041 4.13972249 33.92704158 3.61773682 35.92874146 C1.653089 43.44115978 -0.37975188 50.93529605 -2.42165947 58.42704105 C-3.43858683 62.15876177 -4.44782787 65.89221348 -5.43994141 69.63061523 C-6.41332784 73.29771824 -7.40535801 76.95930386 -8.41049576 80.61782646 C-8.78617224 81.99742269 -9.15538115 83.37879877 -9.51763535 84.76198006 C-13.33301748 99.29199442 -13.33301748 99.29199442 -19.36328125 104.05078125 C-24.68398096 107.1135233 -30.38665941 106.64621057 -36.36328125 106.05078125 C-41.33548925 103.78275655 -43.66531105 100.74724789 -46.36328125 96.05078125 C-48.48052839 89.69903983 -47.31093485 83.67271263 -45.51489258 77.38476562 C-45.31809906 76.66492996 -45.12130554 75.9450943 -44.91854858 75.20344543 C-44.27127582 72.84743162 -43.60898733 70.49597284 -42.9453125 68.14453125 C-42.48593039 66.49376046 -42.0270924 64.84283816 -41.56877136 63.19177246 C-40.60799125 59.74029857 -39.63953333 56.29109465 -38.66577148 52.84326172 C-37.42387981 48.44308301 -36.20301965 44.03738816 -34.98811817 39.62969208 C-34.04577953 36.22117313 -33.0913781 32.81611981 -32.13348961 29.41194153 C-31.67872124 27.78966212 -31.22783349 26.16628931 -30.78104591 24.54179382 C-25.52659614 5.49063486 -25.52659614 5.49063486 -18.98046875 0.08203125 C-13.23534102 -2.18172057 -5.75477921 -2.31142371 0 0 Z " fill="#03A8D0" transform="translate(92.36328125,0.94921875)"/>
<path d="M0 0 C4.46490475 1.92452791 7.08068524 4.53103139 9.31858826 8.90800476 C11.92398838 16.90681709 9.43175419 25.60877254 7.18359375 33.38671875 C6.88945084 34.44623245 6.59530792 35.50574615 6.29225159 36.59736633 C5.35386994 39.96460769 4.39597516 43.32593012 3.4375 46.6875 C2.82099619 48.89092126 2.20575273 51.09469556 1.59179688 53.29882812 C0.0622794 58.77386938 -1.49521062 64.24049096 -3.06182861 69.70501709 C-4.01731004 73.06079518 -4.95295978 76.42167538 -5.88623047 79.78369141 C-6.49537613 81.94574853 -7.10489911 84.10769939 -7.71484375 86.26953125 C-7.98639786 87.26224533 -8.25795197 88.25495941 -8.53773499 89.27775574 C-10.41882732 95.87290821 -12.45612472 100.52135229 -17.4375 105.375 C-22.89410055 107.86397569 -28.10251007 107.74375988 -34 107 C-38.50665768 104.86526742 -41.1741532 102.08177871 -44 98 C-47.23276926 88.30169221 -43.22241587 78.36355212 -40.546875 68.9609375 C-40.08488476 67.30926043 -39.62365492 65.6573705 -39.16314697 64.00527954 C-38.1987274 60.55541212 -37.22618368 57.10797322 -36.24755859 53.66210938 C-34.99802444 49.26038993 -33.76743638 44.8536437 -32.54270554 40.44496727 C-31.59402101 37.03707988 -30.63609555 33.63184399 -29.67533112 30.22734451 C-29.21820887 28.60389048 -28.76373374 26.97968853 -28.31203461 25.35471725 C-27.67785812 23.07929074 -27.03147495 20.80767423 -26.38183594 18.53662109 C-26.19985153 17.87462204 -26.01786713 17.21262299 -25.83036804 16.53056335 C-24.16133666 10.78063193 -21.8341939 5.88246216 -17.625 1.5625 C-11.85000016 -0.92672407 -6.18744216 -0.71280509 0 0 Z " fill="#0297D8" transform="translate(136,0)"/>
<path d="M0 0 C4.95330233 2.22044587 7.50836914 5.20130354 10 10 C11.47879553 16.86312795 10.3742736 21.99814473 8.5 28.6875 C8.0515271 30.33830566 8.0515271 30.33830566 7.59399414 32.02246094 C6.86568427 34.68375952 6.13021233 37.34234116 5.38720703 39.99951172 C4.33532065 43.77216607 3.30792331 47.55094556 2.28857422 51.33251953 C0.68853999 57.26821618 -0.93293462 63.19773206 -2.56689453 69.12417603 C-3.22855745 71.53383862 -3.88436021 73.94511831 -4.53417969 76.35800171 C-5.46416852 79.80128892 -6.41862703 83.23692984 -7.37890625 86.671875 C-7.65388443 87.70949478 -7.92886261 88.74711456 -8.21217346 89.81617737 C-10.15344409 96.63269608 -12.64017296 102.46845104 -19.00001526 106.16131592 C-23.6355372 108.10519998 -29.09334894 107.48883199 -34 107 C-38.91532537 104.75792176 -41.79012798 101.92971451 -44 97 C-45.58421316 84.8789017 -41.91332551 73.90487961 -38.5 62.4375 C-37.94678393 60.53282514 -37.39536783 58.6276266 -36.84570312 56.72192383 C-36.01942394 53.85963254 -35.19146083 50.99792928 -34.35583496 48.13835144 C-32.68786141 42.42736181 -31.08538819 36.70444836 -29.5625 30.953125 C-29.38231323 30.27697647 -29.20212646 29.60082794 -29.01647949 28.90419006 C-28.19628504 25.82410876 -27.38497769 22.742158 -26.58789062 19.65600586 C-24.61572781 12.30859141 -22.30651643 5.83420148 -16.1015625 0.91796875 C-11.07244057 -1.27876667 -5.32556614 -0.67676434 0 0 Z " fill="#02BAC7" transform="translate(44,0)"/>
<path d="M0 0 C0.33 0 0.66 0 1 0 C0.73773571 5.80915401 -0.19456513 10.91950158 -2.0625 16.4375 C-4.31160831 23.39003554 -5.64674001 30.15760664 -2.6875 37.0625 C-0.96162871 39.2156101 -0.96162871 39.2156101 2 41 C2 41.66 2 42.32 2 43 C-2.21779303 41.49364535 -3.7747674 38.75987578 -6 35 C-8.65275589 27.04173234 -5.7827547 19.81417089 -3.5 12.0625 C-3.16613281 10.90169922 -2.83226562 9.74089844 -2.48828125 8.54492188 C-1.6670641 5.6941252 -0.83743407 2.84606678 0 0 Z " fill="#187FD0" transform="translate(180,62)"/>
<path d="M0 0 C6.59386282 6.2468174 6.59386282 6.2468174 7.37109375 11.515625 C7.53502861 18.26588407 6.71810113 22.9752223 2 28 C-0.92098545 30.36026056 -3.54192483 32.14954617 -7.4375 31.75 C-7.953125 31.5025 -8.46875 31.255 -9 31 C-6 29 -6 29 -2 29 C-2 28.34 -2 27.68 -2 27 C-1.21625 26.4225 -0.4325 25.845 0.375 25.25 C3.57355187 22.50838411 4.2351305 21.13029529 5 17 C5.08028615 10.74771639 4.48799846 6.63277261 0 2 C0 1.34 0 0.68 0 0 Z " fill="#1866D6" transform="translate(248,3)"/>
<path d="M0 0 C0.33 0 0.66 0 1 0 C0.61821685 5.53585571 -0.34931124 10.27764563 -2.0625 15.5625 C-4.45701119 23.47216693 -4.38165114 30.83690612 -4 39 C-6.87473381 36.12526619 -6.98749938 34.1720572 -7.28125 30.12890625 C-7.20938558 23.79585419 -5.30083753 17.96230973 -3.5 11.9375 C-3.16613281 10.78572266 -2.83226563 9.63394531 -2.48828125 8.44726562 C-1.66946959 5.62821405 -0.8398625 2.81283737 0 0 Z " fill="#1F9DC6" transform="translate(98,61)"/>
<path d="M0 0 C0.33 0 0.66 0 1 0 C0.60331899 5.37607156 0.16930457 10.02336009 -2 15 C-2.3569569 16.45273156 -2.68773183 17.91201134 -3 19.375 C-3.84443979 23.32011715 -4.72320037 27.16960111 -6 31 C-6.66 31.33 -7.32 31.66 -8 32 C-7.29304559 25.1395551 -5.33617314 18.67589812 -3.4375 12.0625 C-2.9434668 10.32129883 -2.9434668 10.32129883 -2.43945312 8.54492188 C-1.6303404 5.69543794 -0.81708013 2.84720753 0 0 Z " fill="#1BABC1" transform="translate(58,40)"/>
<path d="M0 0 C0.33 0 0.66 0 1 0 C2.64242787 5.20102159 1.33685759 8.18223375 -0.7421875 12.921875 C-2.31046325 16.75976722 -3.53556491 20.66344103 -4.75 24.625 C-4.97252441 25.34864746 -5.19504883 26.07229492 -5.42431641 26.81787109 C-5.95280091 28.54425382 -6.47687871 30.27198457 -7 32 C-8.29357992 28.11926025 -7.45990522 26.28181992 -6.34765625 22.36328125 C-6.16867294 21.72384079 -5.98968964 21.08440033 -5.80528259 20.42558289 C-5.23229241 18.38555087 -4.64757407 16.34909554 -4.0625 14.3125 C-3.6717485 12.92925587 -3.28176515 11.5457945 -2.89257812 10.16210938 C-1.937283 6.77217431 -0.97144215 3.38534788 0 0 Z " fill="#24BEBC" transform="translate(9,51)"/>
<path d="M0 0 C4.5473152 3.58998569 5.92988227 6.64840909 6.86328125 12.3515625 C7.0749987 16.45283195 6.22281096 20.10581739 5 24 C4.67 24 4.34 24 4 24 C4.06960937 22.48019531 4.06960937 22.48019531 4.140625 20.9296875 C4.17816758 19.57815468 4.21456506 18.22658972 4.25 16.875 C4.28351562 16.20984375 4.31703125 15.5446875 4.3515625 14.859375 C4.45330222 9.67064942 3.01934111 7.10107355 0 3 C0 2.01 0 1.02 0 0 Z " fill="#20A6BB" transform="translate(48,3)"/>
<path d="M0 0 C0 0.66 0 1.32 0 2 C-1.93530766 3.82729049 -3.99047623 5.46895378 -6.0546875 7.1484375 C-8.00628224 9.00597948 -8.968272 10.53471309 -10 13 C-10.66 13 -11.32 13 -12 13 C-10.59697508 7.51544806 -6.53619682 0 0 0 Z " fill="#18A6C5" transform="translate(78,0)"/>
<path d="M0 0 C-1.36911804 3.1489715 -2.8752136 5.0478487 -5.5 7.25 C-6.41265625 8.03117188 -6.41265625 8.03117188 -7.34375 8.828125 C-9 10 -9 10 -11 10 C-9.15139825 5.46252298 -5.31552576 0 0 0 Z " fill="#1E83CB" transform="translate(170,0)"/>
<path d="M0 0 C1.40609877 2.51089066 2.14252983 4.60301083 2.8125 7.4375 C4.15649185 11.46947554 5.91819519 13.16149557 9 16 C9 16.66 9 17.32 9 18 C4.78220697 16.49364535 3.2252326 13.75987578 1 10 C-0.1577506 6.52674819 -0.06866652 3.63932552 0 0 Z " fill="#217BC3" transform="translate(173,87)"/>
<path d="M0 0 C0.53625 0.2475 1.0725 0.495 1.625 0.75 C-3.55078125 3.97265625 -3.55078125 3.97265625 -5.375 4.75 C-6.365 4.42 -7.355 4.09 -8.375 3.75 C-2.95961538 -0.31153846 -2.95961538 -0.31153846 0 0 Z " fill="#1893C8" transform="translate(124.375,0.25)"/>
<path d="M0 0 C0.33 0 0.66 0 1 0 C2.23076923 5.41538462 2.23076923 5.41538462 1.0625 8.375 C0.711875 8.91125 0.36125 9.4475 0 10 C-0.33 10 -0.66 10 -1 10 C-1.125 3.375 -1.125 3.375 0 0 Z " fill="#16BEC1" transform="translate(9,51)"/>
</svg>
